<svg xmlns="http://www.w3.org/2000/svg" viewBox="0 0 560 110">
  <defs>
    <linearGradient id="gold" x1="0%" y1="0%" x2="100%" y2="100%">
      <stop offset="0%" style="stop-color:#d4b06a"/>
      <stop offset="35%" style="stop-color:#e0c88a"/>
      <stop offset="50%" style="stop-color:#c9a96e"/>
      <stop offset="75%" style="stop-color:#b8944e"/>
      <stop offset="100%" style="stop-color:#a07d3f"/>
    </linearGradient>
  </defs>
  <g fill="none" stroke="url(#gold)" stroke-width="4" stroke-linecap="round" stroke-linejoin="round">
    <!-- K -->
    <line x1="15" y1="10" x2="15" y2="100"/>
    <line x1="15" y1="55" x2="50" y2="10"/>
    <line x1="15" y1="55" x2="50" y2="100"/>
    <!-- Λ (A) -->
    <line x1="65" y1="100" x2="87" y2="10"/>
    <line x1="87" y1="10" x2="109" y2="100"/>
    <!-- Λ (A) -->
    <line x1="122" y1="100" x2="144" y2="10"/>
    <line x1="144" y1="10" x2="166" y2="100"/>
    <!-- gap -->
    <!-- K -->
    <line x1="220" y1="10" x2="220" y2="100"/>
    <line x1="220" y1="55" x2="255" y2="10"/>
    <line x1="220" y1="55" x2="255" y2="100"/>
    <!-- V (U runic style) -->
    <line x1="275" y1="10" x2="297" y2="100"/>
    <line x1="297" y1="100" x2="319" y2="10"/>
    <!-- Λ (A) -->
    <line x1="335" y1="100" x2="357" y2="10"/>
    <line x1="357" y1="10" x2="379" y2="100"/>
    <!-- Λ (A) -->
    <line x1="395" y1="100" x2="417" y2="10"/>
    <line x1="417" y1="10" x2="439" y2="100"/>
  </g>
</svg>
